<svg xmlns="http://www.w3.org/2000/svg" xmlns:xlink="http://www.w3.org/1999/xlink" id="圖層_1" width="43" height="43" x="0" y="0" version="1.1" viewBox="0 0 100 100" xml:space="preserve" style="width:100%;height:100%;background-color:#fff;animation-play-state:paused"><g class="ldl-scale" style="transform-origin:50% 50% 0;transform:rotate(0deg) scale(1);animation-play-state:paused"><path fill="#333" d="M43.12 79.844H27.379a1.798 1.798 0 0 1-1.798-1.798V21.954c0-.993.805-1.798 1.798-1.798H43.12c.993 0 1.798.805 1.798 1.798v56.092a1.797 1.797 0 0 1-1.798 1.798z" style="fill:#4c38ff;animation-play-state:paused"/><path fill="#333" d="M72.62 79.844H56.879a1.798 1.798 0 0 1-1.798-1.798V21.954c0-.993.805-1.798 1.798-1.798H72.62c.993 0 1.798.805 1.798 1.798v56.092a1.797 1.797 0 0 1-1.798 1.798z" style="fill:#4c38ff;animation-play-state:paused"/><metadata xmlns:d="https://loading.io/stock/" style="animation-play-state:paused"><d:name style="animation-play-state:paused">pause</d:name><d:tags style="animation-play-state:paused">pause,stop,halt,stay,trap,player</d:tags><d:license style="animation-play-state:paused">by</d:license><d:slug style="animation-play-state:paused">2wfcys</d:slug></metadata></g></svg>